<svg xmlns="http://www.w3.org/2000/svg" width="14" height="14" viewBox="0 0 14 14"><g><g><path fill="#d62d20" d="M9.183.053a.07.07 0 0 1-.031.08l-.982.6a.07.07 0 0 1-.04.011H6.992c.431.347 1.33 1.069 1.33 2.466 0 1.388-.84 2.03-1.579 2.597l-.024.024c-.233.224-.496.48-.496.866 0 .393.263.605.475.775l.685.518c.812.665 1.577 1.29 1.576 2.56 0 1.713-1.693 3.45-4.93 3.45C1.246 14 0 12.687 0 11.388c0-.327.104-1.453 1.443-2.227 1.135-.678 2.687-.781 3.521-.837l.058-.004-.032-.04c-.26-.323-.53-.657-.53-1.2 0-.28.077-.457.159-.646l.028-.066c-.19.017-.405.037-.6.037-2.02 0-3.11-1.478-3.11-2.868 0-.902.448-1.816 1.198-2.445C3.088.326 4.148 0 5.678 0h3.434c.033 0 .062.021.071.053zm-1.48 11.209c0-.954-.663-1.457-2.044-2.411-.149-.019-.243-.019-.43-.019-.011 0-1.115.014-1.97.295-1.067.375-1.61 1.008-1.61 1.878 0 1.333 1.326 2.229 3.299 2.229 1.699 0 2.755-.755 2.755-1.972zm-1.5-5.88c.468-.458.468-1.117.468-1.333 0-1.373-.84-3.359-2.36-3.359-.497 0-1.012.236-1.313.602-.277.334-.412.776-.412 1.352 0 1.133.687 3.25 2.343 3.25.447 0 .96-.207 1.274-.513zM14 6.61v.767c0 .04-.034.073-.074.073h-1.81v1.763c0 .04-.034.074-.075.074h-.778a.074.074 0 0 1-.074-.074V7.45h-1.8a.074.074 0 0 1-.075-.073V6.61c0-.04.033-.072.074-.072h1.8V4.785c0-.04.034-.072.075-.072h.778c.041 0 .075.032.075.072v1.753h1.81c.04 0 .074.033.074.072z"/></g></g></svg>